<svg xmlns="http://www.w3.org/2000/svg" viewBox="0 0 256 256" width="36px" height="36px">
  <defs>
    <filter id="shadow" x="-20%" y="-20%" width="140%" height="140%">
      <feDropShadow dx="0" dy="4" stdDeviation="6" flood-color="#000000" flood-opacity="0.25"/>
    </filter>

    <linearGradient id="bracketGrad" x1="0%" y1="0%" x2="0%" y2="100%">
      <stop offset="0%" stop-color="#A78BFA" />
      <stop offset="100%" stop-color="#6D28D9" />
    </linearGradient>

    <linearGradient id="greenGrad" x1="0%" y1="0%" x2="0%" y2="100%">
      <stop offset="0%" stop-color="#34D399" />
      <stop offset="100%" stop-color="#059669" />
    </linearGradient>
  </defs>

  <g filter="url(#shadow)">
    <path d="M 56 108 L 20 156 L 56 204" 
          stroke="url(#bracketGrad)" stroke-width="24" stroke-linecap="round" stroke-linejoin="round" fill="none" />
    
    <path d="M 200 108 L 236 156 L 200 204" 
          stroke="url(#bracketGrad)" stroke-width="24" stroke-linecap="round" stroke-linejoin="round" fill="none" />

    <path d="M 176 128 L 128 156 L 128 212 L 176 184 Z" 
          fill="#1D4ED8" stroke="#1D4ED8" stroke-width="2" stroke-linejoin="round" />
          
    <path d="M 80 128 L 128 156 L 128 212 L 80 184 Z" 
          fill="#3B82F6" stroke="#3B82F6" stroke-width="2" stroke-linejoin="round" />
          
    <path d="M 128 100 L 176 128 L 128 156 L 80 128 Z" 
          fill="#60A5FA" stroke="#60A5FA" stroke-width="2" stroke-linejoin="round" />

    <path d="M 104 114 L 152 142 M 104 142 L 152 114" 
          stroke="#BFDBFE" stroke-width="4" stroke-linecap="round" fill="none" />

    <path d="M 96 68 L 128 44 L 160 68 L 160 84 L 128 60 L 96 84 Z" 
          fill="url(#greenGrad)" stroke="url(#greenGrad)" stroke-width="2" stroke-linejoin="round" />
          
    <path d="M 96 92 L 128 68 L 160 92 L 160 108 L 128 84 L 96 108 Z" 
          fill="url(#greenGrad)" stroke="url(#greenGrad)" stroke-width="2" stroke-linejoin="round" />
  </g>
</svg>